<?xml version="1.0" encoding="utf-8"?>
<!-- Generator: Adobe Illustrator 19.0.0, SVG Export Plug-In . SVG Version: 6.00 Build 0)  -->
<svg version="1.1" id="Capa_1" xmlns="http://www.w3.org/2000/svg" xmlns:xlink="http://www.w3.org/1999/xlink" x="0px" y="0px"
	 viewBox="0 0 300 90" style="enable-background:new 0 0 300 90;" xml:space="preserve">
<style type="text/css">
	.st0{fill:#FFFFFF;}
</style>
<g id="XMLID_149_">
	<g id="XMLID_1_">
		<path id="XMLID_50_" class="st0" d="M211,1.7c29.2,0,58.4,0,87.7,0c0,29.3,0,58.7,0,88c-98.4,0-196.9,0-295.3,0
			c0-13.5,0-27,0-40.5c0.3,0.3,0.6,0.6,1,0.8c2.1-0.5,2-2.6,2.7-4c1-2,2.2-3.5,4.6-4.1c4.9-1.2,9.7-1.6,14.1,1.2
			c2.5,1.6,4.8,3.7,7.3,5.4c0.8,0.5,2.1,0.6,3.1,0.5c0.3,0,0.6-1.5,0.6-2.2c-0.1-1.6-0.4-3.1-0.9-4.7c-0.7-2.5-1.8-4.9-2.4-7.4
			c-1.8-8.3-3.3-16.7-5.1-25c-0.6-2.7-1.5-5.3-2.3-8c61.5,0,122.9,0,184.4,0c-0.5,1-1,2-1.6,3c-0.3,0.6-0.6,1.3-1,1.9
			c-0.5,0.7-1.4,1.2-1.8,1.9c-4.3,8.7-8.6,17.5-12.9,26.2c-1.7,3.3-3.7,6.5-4.1,10.3c-0.2,1.7-0.5,3.4,0.4,5.6
			c0.7-0.9,1.3-1.5,1.7-2.2c0.5-0.9,0.8-2.1,1.4-3c0.8-1.1,1.6-2.5,2.7-2.9c2.3-0.8,4.8-1.4,7.3-1.6c3.5-0.3,6.7,1,9.6,2.9
			c2.1,1.4,3.9,3.3,6,4.7c0.8,0.5,2,0.5,3.1,0.4c0.3,0,0.6-1.4,0.5-2.1c-0.2-1.6-0.4-3.3-0.9-4.8c-0.7-2.5-1.8-4.9-2.4-7.4
			c-1.8-8.3-3.3-16.7-5.1-25C212.7,7,211.7,4.4,211,1.7z M76.9,47.3c4.6-0.4,9-1.4,13.2-3.3c0.8-0.3,1.5-1,2-1.7
			c2-3.2,0.5-8.7-2.7-10.6c-2.3-1.4-4.8-1.6-7.4-1.1c-4,0.8-7.9,1.7-10.9,4.9c-0.9,0.9-1.8,1.8-2.8,2.6c-2.5,1.9-2.5,4.7,0.1,6.5
			C70.9,46.3,73.7,47.4,76.9,47.3z M130,29.3c0.8-6.1,1.5-11.9,2.2-17.7c0.2-1.8,0.8-3.6-0.3-5.9c-0.6,1-1.2,1.6-1.3,2.3
			c-1,6.3-1.8,12.6-2.7,18.8c-0.2,1.5,0,3.4-2.3,3.8c-2.1,0.3-4.2,0.7-6.3,1.1c-1.4,0.3-2.9,0.5-4.3,1c-1.3,0.4-1.3,1.2-0.3,2.1
			c0.3,0.3,0.7,0.5,1,0.8c0.7,0.6,1.2,0.6,1.8-0.3c0.4-0.6,1.2-1.1,2-1.3c2-0.4,4.1-0.6,6.2-0.8c0.4,0,1.1,0.4,1.2,0.8
			c0.2,0.7,0.1,1.4,0,2.1c-0.1,2.4-0.4,4.7-0.2,7.1c0.1,1.2-0.1,2.8,1.9,3.5c0.2-1.4,0.6-2.5,0.6-3.7c0.1-2.7,0-5.5,0.1-8.2
			c0-1.2,0.7-2.2,2-2.5c2.6-0.6,5.2-1.2,7.8-1.6c0.9-0.2,1.3-0.3,0.9-1.4C136.9,29.3,133.7,29.3,130,29.3z M268.8,2.8
			c-0.3,1.4-0.6,2.6-0.7,3.7c-0.4,5.2-0.8,10.3-1,15.5c-0.3,6.6-0.5,13.1-0.6,19.7c0,1.3,0.5,2.7,0.9,3.9c0.4,1.3,1.4,1.9,3,1.4
			c-0.2-1.3-0.3-2.5-0.5-3.8c-0.3-2.3-0.8-4.6-0.8-6.8c0-3.2,0.4-6.4,0.6-9.6c0.2-4,0.2-7.9,0.4-11.9c0.1-2.9,0.4-5.8,0.5-8.8
			C270.6,5,270.6,3.6,268.8,2.8z M98.2,47.5c1.6-0.3,2.9-0.4,4.1-0.7c2.8-0.8,5.5-1.6,8.3-2.6c0.7-0.2,1.4-0.9,1.7-1.6
			c0.8-1.8,0-3.4-2.4-4.7c-2.1-1.1-4.3-2-6.5-3.1c-0.5-0.2-1-0.6-1.4-0.8c0-0.2,0.1-0.4,0.1-0.5c3.1-0.2,6.3-0.4,9.4-0.6
			c-0.4-0.6-0.9-0.8-1.3-0.9c-3.3-0.4-6.6-0.8-10-1c-1.4-0.1-2.8,0.2-3.4,1.7c-0.5,1.3,0.2,2.4,2.2,3.4c0.3,0.2,0.7,0.3,1.1,0.5
			c2.2,0.9,4.5,1.7,6.7,2.7c0.9,0.4,1.7,1.2,2.5,1.8c0,0.2-0.1,0.5-0.1,0.7c-1.3,0.4-2.5,0.7-3.8,1.2c-2,0.7-4.1,1.2-6,2.1
			C97.6,45.8,97.5,46.9,98.2,47.5z M231.5,47.7c1.1-0.7,2-1.1,2.8-1.8c3.4-3,6.7-5.9,9.9-9c2.3-2.2,4.5-4.6,7.5-5.8
			c0.3-0.1,0.5-0.8,0.7-1.3c-0.4-0.2-0.8-0.5-1.2-0.6c-0.4-0.1-0.9,0-1.2,0.3c-2.3,1.6-4.7,3.1-6.9,4.8c-2.7,2.2-5.2,4.7-7.7,7
			c-2.5,2.4-2.8,2.4-4.7-0.7c-1.5-2.4-2.9-4.9-4.4-7.3c-0.5-0.8-0.9-1.6-2.3-0.9c0.1,0.7,0.2,1.5,0.5,2.3c0.7,1.6,1.7,3.1,2.2,4.7
			C227.9,42.4,229.3,45.2,231.5,47.7z M298.4,46.5c-0.6-0.7-1.1-1.2-1.5-1.8c-0.4-0.6-0.8-1.3-1.2-2c-1.4-2.5-2.1-2.8-4.8-1.9
			c-3.3,1.1-6.5,2.3-9.8,3.3c-0.8,0.2-1.8-0.3-2.7-0.4c0.3-0.8,0.5-1.8,1.1-2.2c2-1.4,4.1-2.7,6.2-4c1.3-0.8,2.6-1.4,4.2-0.7
			c0.3,0.1,1.1-0.1,1.2-0.4c0.2-0.3,0-1-0.2-1.3c-0.8-1.2-2.1-1.1-3.2-0.7c-4.4,1.4-8.4,3.6-11.6,6.9c-0.9,0.9-1.6,2-0.9,3.4
			c0.8,1.5,3,2.7,4.3,2.3c3.5-1.1,7-2.2,10.4-3.5c1.2-0.4,2.1-0.3,3,0.6c0.9,0.9,1.8,1.8,2.7,2.7C296.7,47.9,297.5,47.9,298.4,46.5z
			 M155.5,34.1c0,0.1,0,0.1-0.1,0.2c-0.3,0-0.6-0.1-0.8,0c-4.6,1.4-8.8,3.7-12.2,7.3c-0.8,0.9-1.4,2-0.5,3.3
			c0.9,1.4,2.9,2.6,4.3,2.1c3.4-1.1,6.9-2.2,10.2-3.4c1.3-0.5,2.3-0.3,3.3,0.7c0.9,1,1.9,2,3,2.9c0.3,0.3,1,0.1,1.6,0.2
			c0-0.5,0.1-1.2-0.1-1.6c-0.5-1-1.3-1.9-1.9-2.9c-1.4-2.5-2.1-2.8-4.9-1.9c-3.2,1-6.3,2.2-9.4,3.4c-1.1,0.4-2.3,0.4-2.8-0.5
			c-0.2-0.5,0.4-1.8,1.1-2.3c2.3-1.6,4.7-3,7.2-4.3c0.8-0.4,1.9-0.2,2.8-0.3c0.5-0.1,1.1-0.3,1.6-0.4c-0.2-0.6-0.3-1.3-0.7-1.7
			C156.7,34.4,156,34.3,155.5,34.1z M68.1,77.6c-0.3,6,4.3,11.4,11,11.4c6.5,0,11.2-5.1,11.3-11.5c0-6.2-5-11.4-11.3-11.5
			C73.3,66.1,67.6,71.4,68.1,77.6z M112.6,77.6c-0.3,6,4.3,11.4,11,11.5c6.5,0,11.2-5.1,11.3-11.3c0.1-6.4-5-11.5-11.1-11.6
			C117.8,66,112.1,71.5,112.6,77.6z M63.7,43c-0.2-0.2-0.3-0.4-0.5-0.6c-3,0.4-6,0.7-8.9,1.3c-3.1,0.6-6.1,0.6-9-0.6
			c-2.2-0.9-2.4-2.6-0.4-3.8c2.7-1.6,5.6-2.9,8.4-4.4c0.5-0.3,0.9-0.7,1.3-1.1c-0.1-0.2-0.2-0.5-0.3-0.7c-1.3,0.1-2.8-0.2-3.9,0.3
			c-2.6,1.1-5.2,2.4-7.6,3.9c-1,0.6-1.8,1.7-2.3,2.7c-0.8,1.9,0.2,3.7,2.5,4.9c4,2.1,8.2,1.8,12.5,0.9c2.3-0.5,4.6-1,6.8-1.6
			C62.9,44.1,63.3,43.4,63.7,43z M168.3,88.9c0.2-0.1,0.3-0.2,0.5-0.3c0-3,0-6,0-9.1c1.4,0,2.7,0.1,4,0c1.2-0.1,1.9,0.4,2.6,1.4
			c1.6,2.1,3.2,4.2,4.9,6.2c1.4,1.6,3.3,2,4.4,1.5c-1.5-1.3-3.3-2.6-4.8-4.2c-1.5-1.6-2.8-3.5-4.1-5.2c0.9-1,1.7-1.7,2.4-2.6
			c2.9-3.8,1.2-9.1-3.4-10c-2.3-0.4-4.8-0.1-7.3-0.1c0,7.2,0,14.2,0,21.2C167.5,88.1,168,88.5,168.3,88.9z M185.7,88.5
			c0.1,0.2,0.3,0.3,0.4,0.5c0.4-0.4,1-0.7,1.2-1.2c0.9-2,1.7-4,2.6-6c0.2-0.4,0.8-0.9,1.3-0.9c2.7-0.1,5.4-0.1,8.1,0
			c0.4,0,1.1,0.5,1.3,0.9c0.9,2,1.7,4,2.6,6c0.2,0.5,0.9,0.8,1.4,1.2c0.1-0.1,0.3-0.3,0.4-0.4c-0.5-1.1-0.9-2.2-1.4-3.3
			c-2.5-6-5-12-7.6-17.9c-0.2-0.4-0.5-0.7-0.7-1c-0.3,0.3-0.6,0.6-0.8,0.9C191.6,74.3,188.7,81.4,185.7,88.5z M252.8,88.9
			c0.1-0.2,0.3-0.3,0.4-0.5c-3.1-7.4-6.3-14.9-9.4-22.3c-0.2,0-0.4,0-0.6,0c-3.1,7.5-6.2,14.9-9.3,22.4c0.1,0.1,0.3,0.2,0.4,0.4
			c0.4-0.4,1.1-0.7,1.3-1.1c0.9-2,1.7-4,2.6-6c0.2-0.5,0.9-0.9,1.4-1c2.6-0.1,5.3-0.1,8,0c0.5,0,1.2,0.5,1.4,1c0.9,2,1.7,4,2.6,6
			C251.7,88.3,252.3,88.6,252.8,88.9z M158.7,67.8c0-0.2-0.1-0.4-0.1-0.6c-3.1-0.9-7.9-1.3-9.7-0.9c-6.9,1.6-10,8.8-7.8,15.1
			c2.8,7.9,11.2,8.9,17.6,6.3c0.4-0.2,0.7-0.8,0.7-1.2c0.1-2.6,0.1-5.2,0-7.8c0-0.4-0.5-0.8-0.7-1.2c-0.2,0.4-0.6,0.7-0.6,1.1
			c-0.1,2.3,0,4.6-0.1,7c0,0.5-0.4,1.3-0.7,1.4c-4.4,1.2-8.7,1.4-12.3-2.1c-5.5-5.2-3.5-15.2,3.5-17.3c2.9-0.9,5.7-0.2,8.6,0.3
			C157.6,68.1,158.2,67.9,158.7,67.8z M52.2,65.5c3.8,0,7.3,0,11.4,0c-0.6-0.7-0.8-1.2-1.1-1.2c-3.8-0.1-7.7,0-11.5,0
			c0,8.3,0,16.4,0,24.5c0.2,0.1,0.4,0.1,0.6,0.2c0.2-0.5,0.7-0.9,0.7-1.4c0.1-3.4,0.1-6.7,0-10.1c0-1.2,0.3-1.7,1.6-1.6
			c2.2,0.1,4.3,0,6.5,0c0.7,0,1.4-0.1,2.2-0.1c0-0.2,0-0.4,0.1-0.5c-0.4-0.1-0.9-0.3-1.3-0.3c-2.5,0-5.1,0-7.6,0c-0.7,0-1.3,0-1.3-1
			C52.2,71.1,52.2,68.4,52.2,65.5z M210,66.6c0,7.1,0,14.2,0,21.2c0,1.1,0.5,1.2,1.4,0.7c0-3.8,0-7.5,0-11.4c3,0,5.9,0,8.8,0
			c0-0.3,0.1-0.6,0.1-1c-2.9-0.1-5.9,0-8.8-0.1c0-2.9,0-5.7,0-8.6c3,0,5.8,0,8.6,0c0.4,0,0.9-0.2,1.3-0.4c0-0.2-0.1-0.3-0.1-0.5
			C217.5,66.6,213.9,66.6,210,66.6z M110,66.6c-5.9,0-11.4,0-16.9,0c0,0.3,0,0.6,0,0.6c2.5,0.2,4.9,0.4,7.6,0.6c0,7,0,13.9,0,20.8
			c1.4,0.6,1.3-0.3,1.3-1.1c0-5.3,0-10.5,0-15.8c0-1.3,0-2.6,0-4.1c1.5,0,2.8,0.1,4.1,0C107.3,67.4,108.7,68.1,110,66.6z
			 M227.9,88.5c0.2,0.1,0.3,0.3,0.5,0.4c0.3-0.4,0.8-0.8,0.8-1.1c0-6.8,0-13.5,0-20.3c0-1.1-0.4-1.2-1.3-0.8
			C227.9,74,227.9,81.2,227.9,88.5z M258.8,35.3c-0.2-0.1-0.4-0.2-0.6-0.3c-0.5,0.7-1.2,1.3-1.3,2c-0.4,2.9-0.5,5.8-0.7,8.6
			c0,0.7-0.2,1.6,0.9,1.5c0.9-0.1,1.4-0.5,1.4-1.6c0-1.5,0.2-2.9,0.3-4.4C258.8,39.2,258.8,37.2,258.8,35.3z M259.2,26.1
			c0.6-0.8,1.1-1.5,1.6-2.2c-0.8-0.5-1.6-1.3-2.5-1.4c-0.5-0.1-1.1,0.9-1.7,1.5C257.5,24.7,258.2,25.3,259.2,26.1z M227.3,63.9
			c0.1,0.2,0.1,0.3,0.2,0.5c1.3-0.5,2.7-0.9,4-1.4c1-0.3,1.4-0.8,0.8-1.9C230.6,62.1,228.9,63,227.3,63.9z"/>
		<path id="XMLID_49_" class="st0" d="M3.3,45.6c0-14.6,0-29.2,0-43.9c7.3,0,14.6,0,21.9,0c-0.5,0.9-1,1.8-1.5,2.6
			c-0.4,0.7-0.5,1.8-1,2c-1.4,0.6-1.8,1.9-2.4,3c-2.3,4.3-4.5,8.6-6.7,12.9c-2.5,5-4.9,10.1-7.2,15.2c-0.9,2-1.6,4.2-2.4,6.3
			C3.8,44.4,3.6,45,3.3,45.6z"/>
		<path id="XMLID_46_" d="M3.3,45.6C3.6,45,3.8,44.4,4,43.8c0.8-2.1,1.5-4.3,2.4-6.3c2.3-5.1,4.8-10.2,7.2-15.2
			c2.1-4.4,4.4-8.7,6.7-12.9c0.6-1.1,1-2.4,2.4-3c0.5-0.2,0.7-1.3,1-2c0.5-0.9,1-1.8,1.5-2.6c0.2,0,0.4,0,0.7,0
			c0.8,2.7,1.7,5.3,2.3,8c1.8,8.3,3.3,16.7,5.1,25c0.5,2.5,1.7,4.9,2.4,7.4c0.4,1.5,0.7,3.1,0.9,4.7c0.1,0.8-0.3,2.2-0.6,2.2
			c-1,0.1-2.3,0.1-3.1-0.5c-2.5-1.7-4.7-3.8-7.3-5.4c-4.4-2.9-9.2-2.5-14.1-1.2C9.2,42.5,8,44,7,46.1c-0.7,1.4-0.6,3.5-2.7,4
			c-0.3-0.3-0.7-0.6-1-0.8C3.3,48,3.3,46.8,3.3,45.6z M10.8,38.7c7.7-1.1,15-0.8,21.3,4.7c-2-11.7-3.2-23.2-7.2-34.4
			C21.7,12.5,10.7,35.4,10.8,38.7z"/>
		<path id="XMLID_43_" d="M211,1.7c0.8,2.7,1.7,5.3,2.3,8c1.8,8.3,3.3,16.7,5.1,25c0.5,2.5,1.7,4.9,2.4,7.4c0.4,1.6,0.7,3.2,0.9,4.8
			c0.1,0.7-0.3,2-0.5,2.1c-1,0.1-2.3,0.1-3.1-0.4c-2.1-1.4-3.9-3.3-6-4.7c-2.9-1.9-6.1-3.2-9.6-2.9c-2.5,0.2-5,0.7-7.3,1.6
			c-1.1,0.4-2,1.8-2.7,2.9c-0.6,0.9-0.8,2-1.4,3c-0.4,0.7-1,1.3-1.7,2.2c-0.9-2.2-0.7-3.9-0.4-5.6c0.5-3.8,2.5-7,4.1-10.3
			c4.4-8.7,8.6-17.5,12.9-26.2c0.4-0.8,1.2-1.2,1.8-1.9c0.4-0.6,0.7-1.2,1-1.9c0.5-1,1-2,1.6-3C210.5,1.7,210.7,1.7,211,1.7z
			 M210.1,9.2c-0.2-0.1-0.5-0.1-0.7-0.2c-1.9,3.6-3.9,7.2-5.7,10.8c-1.8,3.5-3.5,7.2-5.1,10.8c-1,2.1-1.8,4.3-2.7,6.4
			c-0.5,1.1-0.2,1.7,1.1,1.6c1.4-0.1,2.9-0.1,4.3-0.2c5.3-0.5,9.9,1,14.2,4.1c0.5,0.3,1,0.6,1.5,0.9c0.1-0.1,0.3-0.2,0.4-0.2
			C215.2,31.7,214,20.2,210.1,9.2z"/>
		<path id="XMLID_40_" d="M76.9,47.3c-3.2,0.1-6-0.9-8.5-2.7c-2.6-1.8-2.6-4.6-0.1-6.5c1-0.8,1.9-1.7,2.8-2.6
			c2.9-3.2,6.8-4.1,10.9-4.9c2.6-0.5,5.1-0.3,7.4,1.1c3.2,1.9,4.7,7.4,2.7,10.6c-0.4,0.7-1.2,1.3-2,1.7
			C85.9,45.9,81.5,46.9,76.9,47.3z M77.1,44.9c0-0.1,0.1-0.2,0.1-0.3c1.2-0.1,2.5-0.2,3.6-0.5c2.6-0.7,5.3-1.3,7.7-2.4
			c2.8-1.4,2.9-4.5,0.6-6.6c-1.7-1.6-3.6-2.2-6.1-1.9c-5,0.6-9.2,2.6-12.6,6.3c-1.5,1.6-1.4,2.7,0.7,3.5
			C73.1,43.8,75.1,44.3,77.1,44.9z"/>
		<path id="XMLID_39_" d="M130,29.3c3.7,0,6.9,0,10,0c0.4,1.1,0,1.2-0.9,1.4c-2.6,0.4-5.2,1-7.8,1.6c-1.3,0.3-1.9,1.3-2,2.5
			c-0.1,2.7,0,5.5-0.1,8.2c0,1.2-0.4,2.3-0.6,3.7c-2-0.7-1.9-2.3-1.9-3.5c-0.1-2.4,0.1-4.7,0.2-7.1c0-0.7,0.1-1.5,0-2.1
			c-0.1-0.4-0.8-0.8-1.2-0.8c-2.1,0.2-4.1,0.4-6.2,0.8c-0.7,0.1-1.6,0.7-2,1.3c-0.6,0.9-1.1,0.8-1.8,0.3c-0.3-0.3-0.7-0.5-1-0.8
			c-1-0.9-0.9-1.6,0.3-2.1c1.4-0.5,2.8-0.8,4.3-1c2.1-0.4,4.2-0.8,6.3-1.1c2.3-0.3,2.1-2.3,2.3-3.8c1-6.3,1.8-12.5,2.7-18.8
			c0.1-0.7,0.7-1.3,1.3-2.3c1.1,2.3,0.6,4.1,0.3,5.9C131.5,17.4,130.8,23.2,130,29.3z"/>
		<path id="XMLID_38_" d="M268.8,2.8c1.8,0.8,1.8,2.1,1.8,3.3c-0.1,2.9-0.3,5.8-0.5,8.8c-0.2,4-0.2,7.9-0.4,11.9
			c-0.1,3.2-0.6,6.4-0.6,9.6c0,2.3,0.5,4.6,0.8,6.8c0.2,1.3,0.3,2.6,0.5,3.8c-1.6,0.5-2.6,0-3-1.4c-0.4-1.3-1-2.6-0.9-3.9
			c0.1-6.6,0.3-13.1,0.6-19.7c0.2-5.2,0.6-10.3,1-15.5C268.2,5.4,268.5,4.2,268.8,2.8z"/>
		<path id="XMLID_37_" d="M98.2,47.5c-0.7-0.6-0.6-1.7,1-2.5c1.9-0.9,4-1.4,6-2.1c1.3-0.4,2.5-0.8,3.8-1.2c0-0.2,0.1-0.5,0.1-0.7
			c-0.8-0.6-1.6-1.4-2.5-1.8c-2.2-1-4.5-1.8-6.7-2.7c-0.4-0.1-0.7-0.3-1.1-0.5c-1.9-1-2.7-2.1-2.2-3.4c0.6-1.5,2.1-1.8,3.4-1.7
			c3.3,0.2,6.6,0.6,10,1c0.5,0,0.9,0.3,1.3,0.9c-3.1,0.2-6.3,0.4-9.4,0.6c0,0.2-0.1,0.4-0.1,0.5c0.5,0.3,0.9,0.6,1.4,0.8
			c2.2,1,4.4,1.9,6.5,3.1c2.4,1.3,3.2,2.9,2.4,4.7c-0.3,0.7-1,1.3-1.7,1.6c-2.7,1-5.5,1.8-8.3,2.6C101.1,47.1,99.9,47.2,98.2,47.5z"
			/>
		<path id="XMLID_36_" d="M231.5,47.7c-2.2-2.6-3.6-5.3-4.6-8.3c-0.6-1.6-1.6-3.1-2.2-4.7c-0.3-0.7-0.3-1.5-0.5-2.3
			c1.3-0.6,1.8,0.2,2.3,0.9c1.5,2.4,2.9,4.9,4.4,7.3c1.9,3,2.1,3,4.7,0.7c2.5-2.4,5-4.8,7.7-7c2.2-1.8,4.5-3.3,6.9-4.8
			c0.3-0.2,0.8-0.3,1.2-0.3c0.4,0.1,0.8,0.4,1.2,0.6c-0.2,0.4-0.4,1.1-0.7,1.3c-3.1,1.2-5.2,3.6-7.5,5.8c-3.2,3.1-6.6,6-9.9,9
			C233.5,46.6,232.5,47.1,231.5,47.7z"/>
		<path id="XMLID_35_" d="M298.4,46.5c-0.8,1.3-1.6,1.4-2.6,0.3c-0.8-0.9-1.8-1.8-2.7-2.7c-0.9-0.9-1.8-1-3-0.6
			c-3.4,1.3-6.9,2.4-10.4,3.5c-1.4,0.4-3.5-0.8-4.3-2.3c-0.8-1.4,0-2.5,0.9-3.4c3.2-3.4,7.2-5.5,11.6-6.9c1.1-0.3,2.4-0.4,3.2,0.7
			c0.2,0.3,0.4,1,0.2,1.3c-0.2,0.3-0.9,0.6-1.2,0.4c-1.6-0.7-2.9-0.1-4.2,0.7c-2.1,1.3-4.2,2.5-6.2,4c-0.6,0.4-0.7,1.5-1.1,2.2
			c0.9,0.2,1.9,0.7,2.7,0.4c3.3-1,6.5-2.3,9.8-3.3c2.7-0.9,3.4-0.5,4.8,1.9c0.4,0.7,0.8,1.3,1.2,2C297.3,45.4,297.8,45.9,298.4,46.5
			z"/>
		<path id="XMLID_34_" d="M155.5,34.1c0.5,0.2,1.2,0.3,1.6,0.7c0.4,0.4,0.4,1.1,0.7,1.7c-0.5,0.1-1.1,0.3-1.6,0.4
			c-0.9,0.1-2-0.1-2.8,0.3c-2.5,1.3-4.9,2.8-7.2,4.3c-0.6,0.4-1.3,1.8-1.1,2.3c0.5,1,1.6,1,2.8,0.5c3.1-1.2,6.2-2.3,9.4-3.4
			c2.9-0.9,3.5-0.6,4.9,1.9c0.6,1,1.3,1.9,1.9,2.9c0.2,0.4,0.1,1.1,0.1,1.6c-0.5-0.1-1.2,0.1-1.6-0.2c-1.1-0.9-2-1.9-3-2.9
			c-0.9-1-1.9-1.2-3.3-0.7c-3.4,1.2-6.8,2.4-10.2,3.4c-1.3,0.4-3.3-0.7-4.3-2.1c-0.8-1.3-0.3-2.4,0.5-3.3c3.3-3.6,7.5-5.8,12.2-7.3
			c0.3-0.1,0.5,0,0.8,0C155.4,34.2,155.5,34.2,155.5,34.1z"/>
		<path id="XMLID_31_" d="M68.1,77.6c-0.5-6.2,5.2-11.5,11-11.5c6.3,0,11.3,5.3,11.3,11.5c0,6.4-4.7,11.5-11.3,11.5
			C72.4,89,67.8,83.5,68.1,77.6z M88.8,77.5c0-5.8-4.1-10-9.6-10c-5.5,0-9.6,4.4-9.6,10.1c0,5.7,4.2,10.1,9.7,10.1
			C84.7,87.6,88.8,83.3,88.8,77.5z"/>
		<path id="XMLID_28_" d="M112.6,77.6c-0.5-6.1,5.2-11.6,11.2-11.5c6.1,0.1,11.2,5.2,11.1,11.6c-0.1,6.2-4.7,11.4-11.3,11.3
			C116.9,89,112.3,83.5,112.6,77.6z M133.3,77.5c0-5.8-4.1-10.1-9.6-10.1c-5.5,0-9.6,4.4-9.6,10.1c0,5.7,4.2,10.1,9.7,10.1
			C129.2,87.6,133.3,83.3,133.3,77.5z"/>
		<path id="XMLID_27_" d="M63.7,43c-0.4,0.4-0.8,1.1-1.2,1.2c-2.3,0.6-4.5,1.1-6.8,1.6c-4.2,0.9-8.4,1.2-12.5-0.9
			c-2.3-1.2-3.3-2.9-2.5-4.9c0.5-1.1,1.3-2.1,2.3-2.7c2.4-1.5,5-2.8,7.6-3.9c1.1-0.5,2.6-0.2,3.9-0.3c0.1,0.2,0.2,0.5,0.3,0.7
			c-0.4,0.4-0.8,0.9-1.3,1.1c-2.8,1.5-5.7,2.8-8.4,4.4c-2.1,1.2-1.9,2.9,0.4,3.8c2.9,1.2,5.9,1.3,9,0.6c2.9-0.6,5.9-0.9,8.9-1.3
			C63.4,42.6,63.5,42.8,63.7,43z"/>
		<path id="XMLID_24_" d="M168.3,88.9c-0.3-0.4-0.8-0.7-0.8-1.1c0-7,0-14,0-21.2c2.5,0,4.9-0.3,7.3,0.1c4.6,0.8,6.3,6.2,3.4,10
			c-0.7,0.9-1.5,1.6-2.4,2.6c1.3,1.7,2.5,3.6,4.1,5.2c1.5,1.6,3.3,2.9,4.8,4.2c-1.1,0.5-3,0.1-4.4-1.5c-1.8-2-3.4-4.1-4.9-6.2
			c-0.7-0.9-1.4-1.4-2.6-1.4c-1.3,0.1-2.5,0-4,0c0,3.1,0,6.1,0,9.1C168.6,88.7,168.5,88.8,168.3,88.9z M169,67.8c0,3.6,0,6.9,0,10.3
			c3.1,0.4,6,1,7.9-2.2c1.2-1.9,1.4-4.6,0.2-6.1C175,67.1,172,67.5,169,67.8z"/>
		<path id="XMLID_21_" d="M185.7,88.5c3-7.1,5.9-14.2,8.9-21.3c0.1-0.3,0.5-0.6,0.8-0.9c0.2,0.3,0.5,0.6,0.7,1
			c2.5,6,5.1,12,7.6,17.9c0.5,1.1,0.9,2.2,1.4,3.3c-0.1,0.1-0.3,0.3-0.4,0.4c-0.5-0.4-1.1-0.7-1.4-1.2c-0.9-2-1.7-4-2.6-6
			c-0.2-0.4-0.8-0.9-1.3-0.9c-2.7-0.1-5.4-0.1-8.1,0c-0.4,0-1.1,0.5-1.3,0.9c-0.9,2-1.7,4-2.6,6c-0.2,0.5-0.8,0.8-1.2,1.2
			C186,88.8,185.8,88.6,185.7,88.5z M199.6,79.5c-1.5-3.6-2.9-7-4.4-10.6c-1.5,3.7-2.9,7-4.3,10.6C193.9,79.5,196.6,79.5,199.6,79.5
			z"/>
		<path id="XMLID_18_" d="M252.8,88.9c-0.4-0.4-1.1-0.7-1.3-1.1c-0.9-2-1.7-4-2.6-6c-0.2-0.5-0.9-1-1.4-1c-2.6-0.1-5.3-0.1-8,0
			c-0.5,0-1.2,0.5-1.4,1c-0.9,2-1.7,4-2.6,6c-0.2,0.5-0.8,0.8-1.3,1.1c-0.1-0.1-0.3-0.2-0.4-0.4c3.1-7.5,6.2-14.9,9.3-22.4
			c0.2,0,0.4,0,0.6,0c3.1,7.4,6.3,14.9,9.4,22.3C253.1,88.6,252.9,88.8,252.8,88.9z M247.8,79.5c-1.5-3.5-2.9-6.9-4.3-10.5
			c-1.5,3.6-2.9,7-4.3,10.5C242.1,79.5,244.8,79.5,247.8,79.5z"/>
		<path id="XMLID_17_" d="M158.7,67.8c-0.5,0.1-1.1,0.3-1.6,0.2c-2.9-0.5-5.7-1.2-8.6-0.3c-7,2.1-9,12.1-3.5,17.3
			c3.7,3.5,7.9,3.3,12.3,2.1c0.4-0.1,0.7-0.9,0.7-1.4c0.1-2.3,0-4.6,0.1-7c0-0.4,0.4-0.7,0.6-1.1c0.2,0.4,0.7,0.8,0.7,1.2
			c0.1,2.6,0.1,5.2,0,7.8c0,0.4-0.4,1.1-0.7,1.2c-6.3,2.6-14.7,1.6-17.6-6.3c-2.3-6.4,0.8-13.6,7.8-15.1c1.8-0.4,6.6,0,9.7,0.9
			C158.7,67.4,158.7,67.6,158.7,67.8z"/>
		<path id="XMLID_16_" d="M52.2,65.5c0,2.9,0,5.6,0,8.3c0,1,0.6,1,1.3,1c2.5,0,5.1,0,7.6,0c0.4,0,0.9,0.2,1.3,0.3
			c0,0.2,0,0.4-0.1,0.5c-0.7,0-1.4,0.1-2.2,0.1c-2.2,0-4.3,0.1-6.5,0c-1.3-0.1-1.6,0.4-1.6,1.6c0.1,3.4,0.1,6.7,0,10.1
			c0,0.5-0.4,0.9-0.7,1.4c-0.2-0.1-0.4-0.1-0.6-0.2c0-8.1,0-16.2,0-24.5c3.8,0,7.7,0,11.5,0c0.3,0,0.5,0.6,1.1,1.2
			C59.5,65.5,56,65.5,52.2,65.5z"/>
		<path id="XMLID_15_" d="M210,66.6c3.9,0,7.6,0,11.2,0c0,0.2,0.1,0.3,0.1,0.5c-0.4,0.1-0.9,0.4-1.3,0.4c-2.8,0-5.6,0-8.6,0
			c0,2.9,0,5.6,0,8.6c3,0.1,5.9,0,8.8,0.1c0,0.3-0.1,0.6-0.1,1c-2.9,0-5.8,0-8.8,0c0,3.9,0,7.6,0,11.4c-0.9,0.4-1.4,0.4-1.4-0.7
			C210,80.8,210,73.7,210,66.6z"/>
		<path id="XMLID_14_" d="M110,66.6c-1.3,1.5-2.7,0.8-3.9,0.9c-1.3,0.1-2.6,0-4.1,0c0,1.5,0,2.8,0,4.1c0,5.3,0,10.5,0,15.8
			c0,0.8,0.1,1.7-1.3,1.1c0-6.9,0-13.8,0-20.8c-2.6-0.2-5.1-0.4-7.6-0.6c0,0,0-0.3,0-0.6C98.6,66.6,104.1,66.6,110,66.6z"/>
		<path id="XMLID_13_" d="M227.9,88.5c0-7.2,0-14.5,0-21.8c0.9-0.4,1.3-0.3,1.3,0.8c0,6.8,0,13.5,0,20.3c0,0.4-0.5,0.8-0.8,1.1
			C228.3,88.8,228.1,88.6,227.9,88.5z"/>
		<path id="XMLID_12_" d="M258.8,35.3c0,2,0,3.9,0,5.9c0,1.5-0.3,3-0.3,4.4c0,1.1-0.5,1.6-1.4,1.6c-1.1,0.1-1-0.8-0.9-1.5
			c0.2-2.9,0.4-5.8,0.7-8.6c0.1-0.7,0.9-1.4,1.3-2C258.4,35.1,258.6,35.2,258.8,35.3z"/>
		<path id="XMLID_11_" d="M259.2,26.1c-1-0.8-1.7-1.4-2.6-2.2c0.6-0.6,1.3-1.6,1.7-1.5c0.9,0.2,1.6,0.9,2.5,1.4
			C260.3,24.6,259.7,25.3,259.2,26.1z"/>
		<path id="XMLID_10_" d="M227.3,63.9c1.7-0.9,3.3-1.8,5-2.8c0.6,1.1,0.3,1.6-0.8,1.9c-1.4,0.4-2.7,0.9-4,1.4
			C227.4,64.3,227.3,64.1,227.3,63.9z"/>
		<path id="XMLID_9_" class="st0" d="M10.8,38.7c-0.1-3.2,10.9-26.2,14.2-29.7c4,11.2,5.2,22.7,7.2,34.4
			C25.8,37.9,18.5,37.6,10.8,38.7z"/>
		<path id="XMLID_8_" class="st0" d="M210.1,9.2c3.9,11,5.1,22.5,7.3,33.8c-0.1,0.1-0.3,0.2-0.4,0.2c-0.5-0.3-1-0.6-1.5-0.9
			c-4.2-3.1-8.9-4.6-14.2-4.1c-1.4,0.1-2.9,0.1-4.3,0.2c-1.3,0.1-1.6-0.4-1.1-1.6c0.9-2.1,1.7-4.3,2.7-6.4c1.7-3.6,3.3-7.2,5.1-10.8
			c1.8-3.6,3.8-7.2,5.7-10.8C209.6,9,209.8,9.1,210.1,9.2z"/>
		<path id="XMLID_7_" class="st0" d="M77.1,44.9c-2-0.6-4-1.1-6-1.9c-2.1-0.8-2.2-1.9-0.7-3.5c3.4-3.7,7.6-5.7,12.6-6.3
			c2.4-0.3,4.3,0.3,6.1,1.9c2.3,2.1,2.2,5.2-0.6,6.6c-2.4,1.2-5.1,1.7-7.7,2.4c-1.2,0.3-2.4,0.3-3.6,0.5
			C77.2,44.7,77.2,44.8,77.1,44.9z"/>
		<path id="XMLID_6_" class="st0" d="M88.8,77.5c0,5.8-4,10.1-9.5,10.2c-5.5,0-9.7-4.3-9.7-10.1c0-5.7,4.1-10.1,9.6-10.1
			C84.7,67.4,88.7,71.6,88.8,77.5z"/>
		<path id="XMLID_5_" class="st0" d="M133.3,77.5c0,5.8-4.1,10.1-9.6,10.1c-5.5,0-9.7-4.4-9.7-10.1c0-5.7,4.2-10.1,9.6-10.1
			C129.2,67.4,133.3,71.7,133.3,77.5z"/>
		<path id="XMLID_4_" class="st0" d="M169,67.8c3-0.3,6-0.7,8.1,2c1.2,1.5,1,4.2-0.2,6.1c-1.9,3.2-4.9,2.6-7.9,2.2
			C169,74.7,169,71.4,169,67.8z"/>
		<path id="XMLID_3_" class="st0" d="M199.6,79.5c-3,0-5.7,0-8.7,0c1.4-3.5,2.8-6.9,4.3-10.6C196.8,72.6,198.1,75.9,199.6,79.5z"/>
		<path id="XMLID_2_" class="st0" d="M247.8,79.5c-3,0-5.7,0-8.7,0c1.4-3.5,2.8-6.9,4.3-10.5C244.9,72.6,246.3,76,247.8,79.5z"/>
	</g>
</g>
</svg>
